<svg width="29" height="31" viewBox="0 0 29 31" fill="none" xmlns="http://www.w3.org/2000/svg">
<path fill-rule="evenodd" clip-rule="evenodd" d="M0 16.0933C0 9.89836 5.45834 5 12 5C18.5417 5 24 9.89836 24 16.0933C24 16.4911 23.9745 16.8794 23.932 17.2585C23.262 23.6311 17.6438 28.0713 15.0492 29.7819L13.2 31V27.0615C13.059 27.0754 12.9204 27.0949 12.7819 27.1144C12.5256 27.1506 12.2697 27.1867 12 27.1867C5.45834 27.1867 0 22.2883 0 16.0933ZM21.6 16.0933C21.6 11.3971 17.3887 7.46519 12 7.46519C6.61126 7.46519 2.4 11.3971 2.4 16.0933C2.4 20.7896 6.61126 24.7215 12 24.7215C12.7384 24.7215 13.4605 24.6385 14.1633 24.4928L15.6 24.1943V26.0576C18.057 24.0372 21.1314 20.9387 21.5461 16.9937L21.5484 16.9889V16.9841C21.5821 16.6857 21.6 16.3899 21.6 16.0933Z" fill="#99A3B0"/>
<circle cx="22.5" cy="6.5" r="6.5" fill="#DD3562"/>
</svg>
