<svg width="20" height="15" viewBox="0 0 20 15" fill="none" xmlns="http://www.w3.org/2000/svg">
<path d="M8.56742 13.5751C8.6234 13.4471 8.81763 13.4379 8.74934 13.3279C7.20669 13.2327 4.04973 13.4199 2.76008 13.0497C1.84043 12.7858 0.465696 11.8643 0.143283 10.8248C-0.551359 8.58743 1.42006 7.48236 3.03996 6.99287C3.19221 6.85381 3.32878 5.7988 4.0335 4.93786C4.65873 4.17334 5.67411 3.61338 6.59433 3.47C6.8199 1.1449 9.92032 -0.119624 11.716 0.00893019C13.061 0.105346 14.7604 1.06517 15.6762 2.15665C16.6317 3.29509 16.9149 4.3878 17.2155 5.86493C17.4254 6.18384 17.7909 6.28088 18.0691 6.49843C19.0279 7.2475 19.8832 8.1412 19.9862 9.51141C20.139 11.5374 19.0089 13.3884 17.3134 14.1313C15.3163 15.0065 14.2818 14.2061 12.8914 13.8532C11.5649 13.5164 10.1879 13.4255 8.8333 13.3588C8.7874 13.496 8.66538 13.5182 8.56742 13.5751Z" fill="#EFEFED"/>
<path d="M11.3244 1.15231C14.0683 1.09669 16.3112 3.68198 16.1802 6.69929C20.9307 7.29199 19.9467 14.2067 15.0747 13.2351C14.6627 13.1529 13.5987 12.7382 12.7238 12.5553C12.1903 12.4434 11.2421 12.2939 10.7087 12.2463C8.44623 12.0448 4.78494 12.5176 2.8723 11.999C-0.442503 11.0998 0.0814168 7.46258 4.27166 7.30188C4.29741 6.22154 5.20587 5.37048 6.11881 5.16962C6.50503 5.08433 6.89238 5.13377 7.28028 5.09236C7.54448 2.88099 9.31551 1.1931 11.3244 1.15231Z" fill="#66A6C5"/>
</svg>
