<svg width="26" height="26" viewBox="0 0 26 26" fill="none" xmlns="http://www.w3.org/2000/svg">
<g clip-path="url(#clip0_298_875)">
<path fill-rule="evenodd" clip-rule="evenodd" d="M13 0C5.8201 0 0 5.8201 0 13C0 20.1799 5.8201 26 13 26C20.1799 26 26 20.1799 26 13C26 5.8201 20.1799 0 13 0ZM13 2.6C18.7434 2.6 23.4 7.2566 23.4 13C23.4 15.0765 22.783 17.0054 21.7344 18.6291L20.734 17.8547C18.7164 16.2986 14.9981 15.6 13 15.6C11.0019 15.6 7.28232 16.2986 5.26602 17.8547L4.26562 18.6316C3.21626 17.0076 2.6 15.0773 2.6 13C2.6 7.2566 7.2566 2.6 13 2.6ZM8.775 9.1C8.775 6.7704 10.6704 4.875 13 4.875C15.3296 4.875 17.225 6.7704 17.225 9.1C17.225 11.4296 15.3296 13.325 13 13.325C10.6704 13.325 8.775 11.4296 8.775 9.1ZM13 7.475C13.8957 7.475 14.625 8.2043 14.625 9.1C14.625 9.9957 13.8957 10.725 13 10.725C12.1043 10.725 11.375 9.9957 11.375 9.1C11.375 8.2043 12.1043 7.475 13 7.475ZM20.2135 20.4801C19.1985 19.719 17.0309 18.2 13 18.2C8.96907 18.2 6.80148 19.719 5.78652 20.4801C7.65702 22.2844 10.1961 23.4 13 23.4C15.8039 23.4 18.343 22.2844 20.2135 20.4801ZM5.27109 19.9418C5.38863 20.0713 5.50664 20.2004 5.62851 20.325C5.50624 20.2003 5.38781 20.0716 5.27109 19.9418ZM5.75352 20.4496C5.71136 20.4086 5.66971 20.367 5.62851 20.325C5.66969 20.3671 5.71132 20.4087 5.75352 20.4496ZM20.6616 20.014L20.6857 19.9875C20.6566 20.0191 20.6276 20.0508 20.5986 20.0825C20.5123 20.1768 20.426 20.2711 20.3369 20.362C20.3079 20.3915 20.2787 20.4208 20.249 20.4496C20.2787 20.4209 20.3079 20.3916 20.3369 20.362C20.448 20.2489 20.5549 20.1313 20.6616 20.014Z" fill="#99A3B0"/>
</g>
<defs>
<clipPath id="clip0_298_875">
<rect width="26" height="26" fill="white"/>
</clipPath>
</defs>
</svg>
