<svg width="33" height="32" viewBox="0 0 33 32" fill="none" xmlns="http://www.w3.org/2000/svg">
<path d="M13.0934 5.71013C13.3031 5.91315 13.6077 6.21769 13.6889 6.3395C13.6957 6.48838 13.6212 6.91473 13.5806 7.19896C13.4047 8.28175 13.3302 8.85698 13.6889 9.11414C14.0476 9.37131 14.5687 9.12091 15.5499 8.62012C15.8071 8.48477 16.1928 8.28852 16.3349 8.24791C16.4771 8.28852 16.8628 8.48477 17.12 8.62012C17.8306 8.98556 18.3043 9.21566 18.6426 9.21566C18.7712 9.21566 18.8795 9.18182 18.981 9.11414C19.3397 8.85698 19.2652 8.28175 19.0893 7.19896C19.0419 6.91473 18.9742 6.48838 18.981 6.3395C19.0622 6.21769 19.3735 5.91315 19.5765 5.71013C20.3548 4.93864 20.7541 4.51229 20.6187 4.09948C20.4834 3.6799 19.9082 3.57162 18.8254 3.4092C18.5344 3.36183 18.108 3.30092 17.9727 3.24679C17.8847 3.13174 17.6884 2.746 17.5531 2.48883C17.0591 1.51432 16.7816 1 16.3349 1C15.8883 1 15.6176 1.50756 15.1168 2.48883C14.9882 2.746 14.792 3.13174 14.6972 3.24679C14.5551 3.29416 14.1288 3.36183 13.8445 3.4092C12.7617 3.57839 12.1865 3.68667 12.0512 4.09948C11.9091 4.51906 12.3083 4.93864 13.0934 5.71013ZM13.9664 4.20776C14.6499 4.09948 14.9815 4.04534 15.1777 3.90323C15.374 3.76111 15.5364 3.44304 15.8409 2.84751C15.9695 2.59711 16.1793 2.1843 16.3349 1.94744C16.4906 2.19107 16.7004 2.59711 16.829 2.84751C17.1335 3.44304 17.2959 3.76111 17.4922 3.90323C17.6884 4.04534 18.02 4.09948 18.7035 4.20776C18.981 4.24836 19.4344 4.32281 19.7119 4.39048C19.5292 4.61381 19.2043 4.93187 19.0013 5.1349C18.5141 5.62215 18.2704 5.86578 18.196 6.0891C18.1216 6.3192 18.1689 6.6508 18.284 7.33431C18.3313 7.61177 18.399 8.06519 18.4193 8.34942C18.1486 8.24791 17.7426 8.03812 17.4922 7.90954C16.8966 7.60501 16.5718 7.44259 16.3349 7.44259C16.0981 7.44259 15.7733 7.60501 15.1777 7.90954C14.9273 8.03812 14.5145 8.24791 14.2506 8.34942C14.2641 8.06519 14.3386 7.61177 14.3859 7.33431C14.4942 6.65757 14.5483 6.3192 14.4739 6.0891C14.3995 5.85901 14.1626 5.62215 13.6686 5.1349C13.4723 4.93864 13.1407 4.61381 12.958 4.39048C13.2355 4.32281 13.6889 4.24836 13.9664 4.20776Z" fill="#979797" stroke="#99A3B0" stroke-miterlimit="10"/>
<path d="M12.7008 31H20.233C20.4563 31 20.639 30.8173 20.639 30.594V11.8211C20.639 11.5978 20.4563 11.4151 20.233 11.4151H12.7008C12.4775 11.4151 12.2948 11.5978 12.2948 11.8211V30.5872C12.2948 30.8173 12.4775 31 12.7008 31ZM13.1069 12.2272H19.8269V30.1811H13.1069V12.2272Z" fill="#979797" stroke="#99A3B0" stroke-miterlimit="10"/>
<path d="M23.5964 15.577V30.594C23.5964 30.8173 23.7792 31 24.0025 31H31.5346C31.758 31 31.9407 30.8173 31.9407 30.594V15.577C31.9407 15.3537 31.758 15.171 31.5346 15.171H24.0025C23.7792 15.171 23.5964 15.3537 23.5964 15.577ZM24.4085 15.9831H31.1286V30.1879H24.4085V15.9831Z" fill="#979797" stroke="#99A3B0" stroke-miterlimit="10"/>
<path d="M1.40605 31H8.93819C9.16152 31 9.34424 30.8173 9.34424 30.594V19.333C9.34424 19.1096 9.16152 18.9269 8.93819 18.9269H1.40605C1.18272 18.9269 1 19.1096 1 19.333V30.594C1 30.8173 1.18272 31 1.40605 31ZM1.81209 19.739H8.53215V30.1879H1.81209V19.739Z" fill="#979797" stroke="#99A3B0" stroke-miterlimit="10"/>
</svg>
